<svg version="1" id="Layer_1" xmlns="http://www.w3.org/2000/svg" x="0" y="0" width="184" height="54.955" viewBox="0 0 184 54.955" xml:space="preserve"><path fill="none" d="M87.763 51.29c-.184.173-.296.53-.296.875 0 .664.258 1.071.775 1.071.481 0 .802-.407.802-.998v-1.183h-.566c-.309 0-.518.05-.715.235zm58.958 0c-.186.173-.295.53-.295.875 0 .664.259 1.071.775 1.071.48 0 .801-.407.801-.998v-1.183h-.565c-.309 0-.52.05-.716.235zm-30.366-5.1h-.938v3.229h.938c.812 0 .998-.653.998-1.614.001-.961-.185-1.615-.998-1.615zm4.678 2.23a.69.69 0 0 0-.554.271c-.197.233-.259.752-.259 1.613h1.626c0-.861-.049-1.38-.246-1.613a.714.714 0 0 0-.567-.271zm10.959 0a.665.665 0 0 0-.555.271c-.233.32-.258.985-.258 2.131s.024 1.798.258 2.118a.663.663 0 0 0 .555.271.682.682 0 0 0 .567-.271c.234-.32.245-.973.245-2.118s-.011-1.811-.245-2.131a.68.68 0 0 0-.567-.271zm-28.934 0a.657.657 0 0 0-.553.271c-.234.32-.26.985-.26 2.131s.025 1.798.26 2.118a.656.656 0 0 0 .553.271.686.686 0 0 0 .568-.271c.233-.32.245-.973.245-2.118s-.012-1.811-.245-2.131a.686.686 0 0 0-.568-.271zm26.951-27.788c-.71-.527-1.981-.796-3.778-.796h-5.895v6.882h6.227c1.539 0 2.688-.289 3.412-.859.709-.558 1.055-1.403 1.055-2.582-.001-1.25-.343-2.14-1.021-2.645zm31.269 27.788a.689.689 0 0 0-.555.271c-.198.233-.259.752-.259 1.613h1.625c0-.861-.049-1.38-.246-1.613a.71.71 0 0 0-.565-.271zm-15.764-18.883h6.639l-3.381-8.583zM73.859 51.29c-.184.173-.295.53-.295.875 0 .664.258 1.071.777 1.071.48 0 .8-.407.8-.998v-1.183h-.567c-.308 0-.517.05-.715.235z"/><path fill="#636666" d="M65.253 46.19h1.478v7.822h1.059V46.19h1.466v-.947h-4.003zm5.319 2.12v-.679h-.96v6.381h.998v-4.349c0-.727.481-1.17 1.158-1.17h.296v-.96c-.406 0-.751.11-1.047.319a1.567 1.567 0 0 0-.445.458zm3.816-.776c-.492 0-.948.185-1.231.467-.382.383-.493.863-.493 1.356h.997c0-.346.062-.555.235-.74a.655.655 0 0 1 .492-.209c.493 0 .752.32.752.912v1.01h-.653c-.666 0-1.034.146-1.355.43-.369.334-.566.851-.566 1.441 0 .666.16 1.146.407 1.43.295.332.628.479 1.097.479.345 0 .555-.085.751-.233.123-.099.271-.26.369-.431v.566h.949V49.38c0-.652-.197-1.084-.505-1.403-.298-.297-.728-.443-1.246-.443zm.753 4.704c0 .591-.32.998-.8.998-.519 0-.777-.407-.777-1.071 0-.345.111-.702.295-.875.198-.185.407-.234.715-.234h.567v1.182zm4.395-4.704a1.28 1.28 0 0 0-1.084.591v-.493h-.961v6.381h.998V49.32c0-.592.333-.888.751-.888.419 0 .764.296.764.888v4.692h.997V49.32c0-.69-.123-1.036-.382-1.319-.27-.308-.603-.467-1.083-.467zm4.988 2.993l-.812-.407c-.259-.123-.444-.271-.53-.418a.943.943 0 0 1-.111-.469c0-.234.074-.456.234-.616a.752.752 0 0 1 .554-.209c.198 0 .395.062.542.222.16.173.235.394.235.763h.983c0-.627-.184-1.082-.517-1.404-.308-.308-.739-.454-1.244-.454-.492 0-.936.159-1.256.48-.32.319-.529.738-.529 1.293 0 .333.061.604.197.837.16.271.455.531.874.739l.825.419c.259.135.443.271.567.455.11.173.16.358.16.578a.92.92 0 0 1-.247.643c-.16.159-.345.232-.604.232a.818.818 0 0 1-.566-.221c-.185-.197-.271-.444-.271-.775h-.985c0 .578.172 1.021.542 1.402.308.321.763.493 1.281.493.517 0 .96-.147 1.305-.504.32-.32.542-.765.542-1.331 0-.406-.099-.764-.271-1.021-.183-.297-.466-.518-.898-.727zm3.768-2.993c-.492 0-.948.185-1.231.467-.382.383-.493.863-.493 1.356h.998c0-.346.062-.555.235-.74a.653.653 0 0 1 .492-.209c.493 0 .752.32.752.912v1.01h-.652c-.667 0-1.036.146-1.356.43-.369.334-.567.851-.567 1.441 0 .666.161 1.146.407 1.43.295.332.628.479 1.097.479.344 0 .555-.085.751-.233a1.66 1.66 0 0 0 .37-.431v.566h.948V49.38c0-.652-.197-1.084-.505-1.403-.298-.297-.729-.443-1.246-.443zm.752 4.704c0 .591-.32.998-.802.998-.518 0-.775-.407-.775-1.071 0-.345.112-.702.296-.875.198-.185.407-.234.715-.234h.566v1.182zm3.966-3.818c.245 0 .418.086.554.246.172.21.198.479.198.738h.984c-.014-.528-.124-1.071-.506-1.453-.32-.32-.726-.418-1.243-.418-.542 0-1.023.159-1.344.591-.394.505-.466 1.404-.466 2.697 0 1.294.072 2.192.466 2.697.32.432.802.591 1.344.591.518 0 .961-.135 1.255-.443.334-.333.48-.825.494-1.428h-.984c0 .296-.038.542-.211.739a.698.698 0 0 1-.541.232.683.683 0 0 1-.567-.271c-.234-.32-.259-.973-.259-2.118s.024-1.811.259-2.131a.684.684 0 0 1 .567-.269zm4.075 3.732v-3.744h.984v-.776h-.984v-1.749h-.997v1.749h-.727v.776h.727v3.781c0 .666.197 1.133.554 1.428.406.346.898.396 1.466.396v-.899c-.666-.001-1.023-.285-1.023-.962zm1.885-6.811h1.169v1.157H98.97zm.086 2.402h.997v6.27h-.997zm4.002-.209c-.565 0-1.021.159-1.342.591-.395.505-.469 1.404-.469 2.697 0 1.294.074 2.192.469 2.697.32.432.776.591 1.342.591.568 0 1.034-.159 1.355-.591.393-.505.456-1.403.456-2.697 0-1.293-.063-2.192-.456-2.697-.321-.432-.787-.591-1.355-.591zm.568 5.406a.686.686 0 0 1-.568.271.657.657 0 0 1-.553-.271c-.234-.32-.26-.973-.26-2.118s.025-1.811.26-2.131a.656.656 0 0 1 .553-.271c.234 0 .444.098.568.271.233.32.245.985.245 2.131s-.012 1.798-.245 2.118zm4.492-5.406a1.285 1.285 0 0 0-1.083.591v-.493h-.96v6.381h.997V49.32c0-.592.333-.888.752-.888s.764.296.764.888v4.692h.998V49.32c0-.69-.125-1.036-.382-1.319-.271-.308-.604-.467-1.086-.467zm8.212-2.291h-1.971v8.77h1.059v-3.646h.912c1.453 0 2.082-.764 2.082-2.575 0-1.946-.752-2.549-2.082-2.549zm.025 4.175h-.938V46.19h.938c.812 0 .998.654.998 1.614.001.961-.185 1.614-.998 1.614zm5.934-1.392c-.332-.357-.737-.492-1.256-.492-.504 0-.923.146-1.256.492-.492.505-.555 1.453-.555 2.796s.074 2.291.567 2.795c.332.346.702.493 1.257.493.505 0 .961-.135 1.267-.467.346-.37.495-.839.506-1.405h-.985c0 .297-.086.566-.222.728a.732.732 0 0 1-.565.245.687.687 0 0 1-.555-.271c-.222-.282-.271-.874-.271-1.885h2.624c0-1.366-.026-2.45-.556-3.029zm-2.068 2.278c0-.861.062-1.38.259-1.613a.693.693 0 0 1 .554-.271c.26 0 .443.122.567.271.197.233.246.752.246 1.613h-1.626zm4.753-1.994v-.679h-.959v6.381h.997v-4.349c0-.727.479-1.17 1.156-1.17h.297v-.96c-.406 0-.752.11-1.048.319-.16.112-.345.285-.443.458zm2.623-1.294v.615h-.727v.776h.727v5.604h.998v-5.604h.985v-.776h-.985v-.578c0-.642.332-.961.985-.961v-.899c-.542 0-1.035.073-1.428.407-.358.294-.555.751-.555 1.416zm4.395.518c-.567 0-1.022.159-1.342.591-.395.505-.469 1.404-.469 2.697 0 1.294.074 2.192.469 2.697.319.432.774.591 1.342.591s1.035-.159 1.354-.591c.396-.505.457-1.403.457-2.697 0-1.293-.062-2.192-.457-2.697-.319-.432-.786-.591-1.354-.591zm.568 5.406a.682.682 0 0 1-.567.271.665.665 0 0 1-.555-.271c-.233-.32-.258-.973-.258-2.118s.024-1.811.258-2.131a.663.663 0 0 1 .555-.271c.235 0 .444.098.567.271.234.32.245.985.245 2.131s-.011 1.798-.245 2.118zm3.411-4.63v-.679h-.961v6.381h.997v-4.349c0-.727.48-1.17 1.158-1.17h.296v-.96c-.406 0-.751.11-1.047.319-.16.112-.345.285-.443.458zm6.883-.776c-.233 0-.529.073-.727.197a2 2 0 0 0-.505.467 1.492 1.492 0 0 0-1.22-.664 1.283 1.283 0 0 0-1.084.591v-.493h-.959v6.381h.996V49.32c0-.592.333-.888.751-.888.42 0 .765.296.765.888v4.692h.997V49.32c0-.592.333-.888.752-.888.418 0 .751.296.751.888v4.692h.998V49.32c0-.69-.11-1.036-.37-1.319-.27-.308-.589-.467-1.145-.467zm4.396 0c-.492 0-.948.185-1.23.467-.381.383-.493.863-.493 1.356h.998c0-.346.062-.555.233-.74a.655.655 0 0 1 .492-.209c.493 0 .752.32.752.912v1.01h-.652c-.665 0-1.035.146-1.354.43-.37.334-.567.851-.567 1.441 0 .666.16 1.146.406 1.43.296.332.628.479 1.098.479.344 0 .553-.085.75-.233.124-.099.271-.26.37-.431v.566H149V49.38c0-.652-.197-1.084-.506-1.403-.295-.297-.725-.443-1.244-.443zm.752 4.704c0 .591-.32.998-.801.998-.517 0-.775-.407-.775-1.071 0-.345.109-.702.295-.875.196-.185.407-.234.716-.234h.565v1.182zm4.397-4.704a1.278 1.278 0 0 0-1.085.591v-.493h-.961v6.381h.998V49.32c0-.592.333-.888.751-.888.42 0 .765.296.765.888v4.692h.998V49.32c0-.69-.124-1.036-.383-1.319-.27-.308-.602-.467-1.083-.467zm4.433.886c.246 0 .418.086.554.246.174.21.198.479.198.738h.984c-.013-.528-.123-1.071-.505-1.453-.319-.32-.726-.418-1.243-.418-.543 0-1.023.159-1.344.591-.394.505-.469 1.404-.469 2.697 0 1.294.075 2.192.469 2.697.32.432.801.591 1.344.591.518 0 .96-.135 1.256-.443.333-.333.479-.825.492-1.428h-.984c0 .296-.038.542-.21.739-.136.147-.308.232-.542.232s-.444-.098-.565-.271c-.235-.32-.261-.973-.261-2.118s.025-1.811.261-2.131a.68.68 0 0 1 .565-.269zm5.702-.394c-.332-.357-.739-.492-1.256-.492-.506 0-.925.146-1.257.492-.494.505-.556 1.453-.556 2.796s.075 2.291.567 2.795c.334.346.703.493 1.257.493.505 0 .96-.135 1.269-.467.344-.37.492-.839.506-1.405h-.986c0 .297-.087.566-.222.728a.736.736 0 0 1-.566.245.688.688 0 0 1-.554-.271c-.223-.282-.271-.874-.271-1.885h2.623c0-1.366-.024-2.45-.554-3.029zm-2.069 2.278c0-.861.061-1.38.259-1.613a.692.692 0 0 1 .555-.271.71.71 0 0 1 .565.271c.197.233.246.752.246 1.613h-1.625z"/><path fill="#658399" d="M6.274 17.991L0 14.67v26.36l23.364 13.925v-7.566l-17.09-9.247z"/><path fill="#6D8EA7" d="M41.325 38.142l-17.188 9.247v7.566l22.936-13.99V14.726l-5.748 3.265z"/><path fill="#7092AB" d="M0 13.591l6.274 3.206L23.749 7.04l17.576 9.719 5.748-3.114L23.749 0z"/><path fill="#231F20" d="M24.138 36.232v-8.601l10.017-5.646v-.839l-10.409 5.686-9.898-5.686v.838l9.516 5.61v8.638zm31.789-21.627h6.291v26.251h-6.291zm21.565 26.252h9.435v-5.126h-9.174c-2.191 0-3.745-.538-4.614-1.599-.882-1.082-1.334-3.008-1.334-5.722 0-3.152.477-5.436 1.413-6.785.921-1.332 2.404-1.98 4.535-1.98h9.174v-5.04h-9.28c-4.196 0-7.348 1.124-9.366 3.338-2.008 2.206-3.028 5.651-3.028 10.239 0 2.365.341 4.429 1.007 6.135.673 1.724 1.701 3.145 3.052 4.22a9.82 9.82 0 0 0 3.353 1.793c1.171.35 2.796.527 4.827.527zm14.123-22.913c-2.008 2.206-3.025 5.651-3.025 10.239 0 2.365.335 4.429 1.004 6.135.674 1.724 1.701 3.145 3.051 4.22 1.038.838 2.163 1.438 3.349 1.793 1.171.35 2.796.526 4.825.526h9.424v-5.126h-9.161c-2.076 0-3.566-.456-4.426-1.357-.82-.858-1.264-2.28-1.317-4.235h14.904v-5.125l-14.851-.017c.14-1.736.652-3.046 1.518-3.897.92-.907 2.324-1.367 4.172-1.367h9.161v-5.126h-9.267c-4.195-.002-7.343 1.122-9.361 3.337zm45.312 9.411c.505-1.134.759-2.506.759-4.078 0-1.611-.312-3.058-.932-4.299a7.612 7.612 0 0 0-2.756-3.05c-.732-.461-1.714-.803-2.922-1.011-1.189-.208-2.794-.311-4.775-.311H114.29v26.251h6.046v-8.945h6.191c2.255 0 3.957-.127 5.061-.382a8.423 8.423 0 0 0 3-1.315 6.99 6.99 0 0 0 2.339-2.86zm-6.952-1.496c-.725.57-1.873.859-3.412.859h-6.227v-6.882h5.895c1.797 0 3.068.269 3.778.796.678.505 1.021 1.396 1.021 2.645-.001 1.179-.346 2.024-1.055 2.582zm15.923-11.254l-11.106 26.251h6.447l2.278-6.09h10.655l2.349 6.09h6.726l-11.196-26.251h-6.153zm-.384 14.932l3.259-8.583 3.381 8.583h-6.64zm31.417-14.932l-6.221 9.485-6.137-9.485h-6.872l10.063 14.728v11.524h6.047V29.334L184 14.605z"/></svg>